<?xml version="1.0" encoding="UTF-8"?>
<svg version="1.1" xmlns="http://www.w3.org/2000/svg" width="1024" height="1024">
<path d="M0 0 C0.81984375 0.74894531 1.6396875 1.49789062 2.484375 2.26953125 C4.08256558 3.72266313 5.69659256 5.15862443 7.328125 6.57421875 C18.67865528 16.47847179 28.53778473 27.72331217 37.59912109 39.72900391 C38.93649764 41.49867364 40.29028041 43.25494499 41.64453125 45.01171875 C52.85640639 59.73872252 62.08737446 75.75907465 69.9375 92.5 C70.26169922 93.17643555 70.58589844 93.85287109 70.91992188 94.54980469 C86.93457796 128.09317303 96.18624555 166.30858699 96.9375 203.5 C96.95796387 204.32677246 96.97842773 205.15354492 96.99951172 206.00537109 C97.70615879 238.59873738 93.74967559 271.35386718 83.9375 302.5 C83.67743164 303.33112305 83.41736328 304.16224609 83.14941406 305.01855469 C71.68864992 341.00002351 52.29519677 375.36223364 26.3515625 402.91015625 C24.42518989 404.97679871 22.57802204 407.07278562 20.73828125 409.21484375 C16.54381113 414.03057029 12.0376198 418.50991369 7.5 423 C6.67306641 423.82242187 5.84613281 424.64484375 4.99414062 425.4921875 C2.97755041 427.49712113 0.95864764 429.49966253 -1.0625 431.5 C-1.7225 431.17 -2.3825 430.84 -3.0625 430.5 C-1.88494141 429.39205078 -1.88494141 429.39205078 -0.68359375 428.26171875 C7.82420791 420.10750567 14.74869155 411.8692608 18.72265625 400.5703125 C20.19147892 398.0671742 22.16326804 396.73545268 24.41088867 394.95507812 C27.14347647 392.35053259 28.51102657 389.0809491 30.0625 385.6875 C30.7109375 384.32682292 31.359375 382.96614583 32.0078125 381.60546875 C32.32508301 380.92701904 32.64235352 380.24856934 32.96923828 379.54956055 C34.56585709 376.16992996 36.25262607 372.83628175 37.9375 369.5 C42.77874882 359.90661259 47.51018632 350.2937545 51.9375 340.5 C52.5975 340.83 53.2575 341.16 53.9375 341.5 C56.1388866 337.69572508 56.1388866 337.69572508 56.9375 333.5 C56.2775 334.16 55.6175 334.82 54.9375 335.5 C55.60248383 331.11110675 57.12507677 327.5188515 58.9375 323.5 C61.27083333 325.83333333 63.60416667 328.16666667 65.9375 330.5 C65.27041016 329.70335937 65.27041016 329.70335937 64.58984375 328.890625 C63.74099609 327.83101562 63.74099609 327.83101562 62.875 326.75 C62.30652344 326.05390625 61.73804688 325.3578125 61.15234375 324.640625 C59.9375 322.5 59.9375 322.5 60.10546875 320.69921875 C60.38003906 319.97347656 60.65460937 319.24773437 60.9375 318.5 C61.29585937 317.34628906 61.65421875 316.19257812 62.0234375 315.00390625 C62.45142869 313.68955059 62.88116468 312.37576201 63.3125 311.0625 C63.52132812 310.40701172 63.73015625 309.75152344 63.9453125 309.07617188 C64.91566342 306.12666008 65.8849727 303.57953077 67.6015625 300.98046875 C69.43018478 297.58521978 69.12358868 295.08032537 68.9375 291.25 C68.66286182 282.40332172 70.14235138 274.13381003 71.9375 265.5 C72.2675 266.16 72.5975 266.82 72.9375 267.5 C73.5975 267.17 74.2575 266.84 74.9375 266.5 C74.6075 263.2 74.2775 259.9 73.9375 256.5 C73.2775 256.5 72.6175 256.5 71.9375 256.5 C71.64875 257.0775 71.36 257.655 71.0625 258.25 C70.3806386 259.61372279 69.66392936 260.96171402 68.88671875 262.2734375 C67.69550909 265.06763299 67.69685721 267.3418695 67.625 270.375 C67.02734547 279.88411047 63.33792315 288.09897234 59.75 296.8125 C57.90845755 301.30824939 56.85997773 305.73386505 55.9375 310.5 C55.2775 310.5 54.6175 310.5 53.9375 310.5 C53.6075 309.84 53.2775 309.18 52.9375 308.5 C52.29429328 310.1080168 51.65115018 311.71605907 51.00830078 313.32421875 C50.45570929 314.70487566 49.90197637 316.0850762 49.34716797 317.46484375 C48.18181069 320.36637321 47.0248442 323.26640504 45.9296875 326.1953125 C41.48728073 338.00170886 35.14770384 348.66948015 27.79467773 358.86962891 C25.55575671 362.00126621 23.6130529 365.03750906 21.9765625 368.52734375 C19.92698734 372.79056359 17.19731132 376.11116867 14.0625 379.625 C13.55847656 380.20636719 13.05445313 380.78773438 12.53515625 381.38671875 C10.04575261 384.23266102 7.50807943 386.91421905 4.7421875 389.4921875 C1.73161821 392.43632203 0.54394145 395.61232462 -1.0625 399.5 C-2.70348794 401.57858473 -4.29319338 403.42564331 -6.125 405.3125 C-6.63377686 405.85237549 -7.14255371 406.39225098 -7.66674805 406.94848633 C-10.91497304 410.36377653 -14.25089006 413.68560897 -17.609375 416.9921875 C-18.39691162 417.76973389 -19.18444824 418.54728027 -19.99584961 419.34838867 C-21.54067794 420.86721886 -23.09318012 422.37829744 -24.65454102 423.88012695 C-29.18723915 428.31863395 -32.92431419 432.87893759 -36.46557617 438.14135742 C-38.6775211 441.40838081 -41.09941611 444.48307989 -43.5625 447.5625 C-46.66155955 451.4506695 -49.69138424 455.35948339 -52.625 459.375 C-73.45587074 485.72847368 -117.46883453 495.74782989 -149.0625 500.5 C-150.83463867 500.76816528 -150.83463867 500.76816528 -152.64257812 501.04174805 C-165.09493026 502.78290487 -177.50743838 502.85721568 -190.0625 502.8125 C-191.69206635 502.80926727 -191.69206635 502.80926727 -193.35455322 502.80596924 C-209.10436269 502.75578567 -224.55024523 502.49050685 -240.0625 499.5 C-241.13435547 499.29600586 -242.20621094 499.09201172 -243.31054688 498.88183594 C-274.87273906 492.69723068 -305.14355887 482.65278053 -333.0625 466.5 C-333.73071777 466.11408691 -334.39893555 465.72817383 -335.08740234 465.33056641 C-345.94310024 458.92014805 -354.48332555 450.67686613 -363.0625 441.5 C-359.12275045 441.5 -357.23313907 442.97789475 -353.875 445 C-352.24498047 445.97453125 -352.24498047 445.97453125 -350.58203125 446.96875 C-349.75058594 447.4740625 -348.91914063 447.979375 -348.0625 448.5 C-348.60777344 448.11666504 -349.15304687 447.73333008 -349.71484375 447.33837891 C-352.16894959 445.60739528 -354.61575805 443.8663749 -357.0625 442.125 C-357.92101562 441.52171875 -358.77953125 440.9184375 -359.6640625 440.296875 C-360.47617187 439.71679688 -361.28828125 439.13671875 -362.125 438.5390625 C-362.87910156 438.00490723 -363.63320313 437.47075195 -364.41015625 436.92041016 C-364.95542969 436.4516748 -365.50070312 435.98293945 -366.0625 435.5 C-366.0625 434.84 -366.0625 434.18 -366.0625 433.5 C-366.63742187 433.25765625 -367.21234375 433.0153125 -367.8046875 432.765625 C-373.10518472 429.79441203 -377.23704 424.4604675 -379.5625 418.9375 C-379.7275 418.133125 -379.8925 417.32875 -380.0625 416.5 C-381.0525 416.5 -382.0425 416.5 -383.0625 416.5 C-383.0625 417.16 -383.0625 417.82 -383.0625 418.5 C-383.7225 418.5 -384.3825 418.5 -385.0625 418.5 C-385.3925 419.16 -385.7225 419.82 -386.0625 420.5 C-384.74935742 424.21793382 -382.25378474 426.45176464 -379.4375 429.125 C-377.94191162 430.54510127 -376.47363602 431.99594968 -375.0625 433.5 C-375.0625 434.16 -375.0625 434.82 -375.0625 435.5 C-374.19625 435.8403125 -374.19625 435.8403125 -373.3125 436.1875 C-370.4961339 437.83038023 -368.98172886 439.89533227 -367.0625 442.5 C-371.13010302 440.80930926 -374.21952466 437.98595867 -377.5 435.125 C-378.41664429 434.33186401 -378.41664429 434.33186401 -379.35180664 433.52270508 C-390.88636941 423.48652281 -402.19343789 413.20474401 -412.0625 401.5 C-412.50835449 400.97857422 -412.95420898 400.45714844 -413.41357422 399.91992188 C-432.86558639 377.08023556 -448.59823623 351.21159525 -460.0625 323.5 C-460.58021973 322.25597412 -460.58021973 322.25597412 -461.10839844 320.98681641 C-474.86430148 287.52703535 -482.2521615 251.78634069 -482.24780273 215.60424805 C-482.25002421 213.54000222 -482.26837309 211.47626385 -482.28710938 209.41210938 C-482.29003861 208.07812679 -482.29202655 206.74414172 -482.29296875 205.41015625 C-482.29707764 204.22558838 -482.30118652 203.04102051 -482.30541992 201.82055664 C-481.88846272 196.1210241 -480.4667728 192.39672747 -476.421875 188.36328125 C-475.68767334 187.6264209 -474.95347168 186.88956055 -474.19702148 186.13037109 C-473.41012939 185.36547363 -472.6232373 184.60057617 -471.8125 183.8125 C-470.60219116 182.61874756 -470.60219116 182.61874756 -469.36743164 181.40087891 C-463.56970042 175.7628443 -457.53884541 170.64829724 -451.078125 165.796875 C-448.50382503 163.83613875 -446.12421432 161.81797659 -443.75 159.625 C-419.56066431 137.74788022 -390.58201726 120.76797909 -363.0625 103.5 C-372.83218165 108.50089536 -381.91639322 114.45707401 -391.0625 120.5 C-392.03823975 121.14291992 -392.03823975 121.14291992 -393.03369141 121.79882812 C-397.39338096 124.67453561 -401.7331332 127.57887414 -406.0625 130.5 C-406.72137207 130.9434375 -407.38024414 131.386875 -408.05908203 131.84375 C-420.36164356 140.14171725 -432.11693823 148.88077145 -443.39257812 158.53076172 C-446.62716582 161.29863338 -449.90464202 163.99053059 -453.25 166.625 C-461.67475772 173.32404122 -469.34538482 180.67787363 -476.8125 188.41015625 C-479.0625 190.5 -479.0625 190.5 -481.0625 190.5 C-478.90191481 158.16572511 -470.043246 127.07935893 -457.0625 97.5 C-456.72605469 96.72930176 -456.38960937 95.95860352 -456.04296875 95.16455078 C-444.34788205 68.64675709 -427.72207586 43.32931782 -407.7421875 22.328125 C-405.550659 20.01519988 -403.44375188 17.67148838 -401.375 15.25 C-395.13136068 8.07357601 -388.36217639 1.74712358 -380.93359375 -4.1875 C-378.00579845 -6.54566982 -375.16398831 -8.9878993 -372.3125 -11.4375 C-361.15138007 -20.74083352 -348.63058084 -28.26140063 -336.0625 -35.5 C-334.92941406 -36.15613281 -333.79632813 -36.81226563 -332.62890625 -37.48828125 C-246.75839394 -85.86756819 -131.23515809 -83.10784578 0 0 Z M-86.0625 57.5 C-85.0625 59.5 -85.0625 59.5 -85.0625 59.5 Z M-275.0625 91.5 C-275.0625 94.5 -275.0625 94.5 -275.0625 94.5 Z M-88.0625 93.5 C-87.0625 95.5 -87.0625 95.5 -87.0625 95.5 Z M-285.0625 96.5 C-285.3925 97.16 -285.7225 97.82 -286.0625 98.5 C-285.0725 98.17 -284.0825 97.84 -283.0625 97.5 C-283.7225 97.17 -284.3825 96.84 -285.0625 96.5 Z M-358.0625 98.5 C-358.3925 99.16 -358.7225 99.82 -359.0625 100.5 C-358.0725 100.17 -357.0825 99.84 -356.0625 99.5 C-356.7225 99.17 -357.3825 98.84 -358.0625 98.5 Z M-361.0625 100.5 C-361.3925 101.16 -361.7225 101.82 -362.0625 102.5 C-361.0725 102.17 -360.0825 101.84 -359.0625 101.5 C-359.7225 101.17 -360.3825 100.84 -361.0625 100.5 Z M-298.0625 101.5 C-298.3925 102.16 -298.7225 102.82 -299.0625 103.5 C-298.0725 103.5 -297.0825 103.5 -296.0625 103.5 C-296.0625 102.84 -296.0625 102.18 -296.0625 101.5 C-296.7225 101.5 -297.3825 101.5 -298.0625 101.5 Z M-319.0625 102.5 C-318.0625 104.5 -318.0625 104.5 -318.0625 104.5 Z M-316.0625 119.5 C-316.87217438 122.41482778 -317.28095993 123.96113217 -316.125 126.8125 C-315.774375 127.369375 -315.42375 127.92625 -315.0625 128.5 C-314.0725 128.17 -313.0825 127.84 -312.0625 127.5 C-310.34682339 123.99705129 -310.34682339 123.99705129 -309.0625 120.5 C-311.3725 120.17 -313.6825 119.84 -316.0625 119.5 Z M-278.0625 121.5 C-277.0625 124.5 -277.0625 124.5 -277.0625 124.5 Z M-277.0625 124.5 C-276.0625 126.5 -276.0625 126.5 -276.0625 126.5 Z M-311.0625 143.5 C-311.0625 144.16 -311.0625 144.82 -311.0625 145.5 C-310.4025 145.5 -309.7425 145.5 -309.0625 145.5 C-309.0625 144.84 -309.0625 144.18 -309.0625 143.5 C-309.7225 143.5 -310.3825 143.5 -311.0625 143.5 Z M-75.0625 165.5 C-74.0625 167.5 -74.0625 167.5 -74.0625 167.5 Z M61.9375 197.5 C58.38236902 202.16416601 55.40724249 206.76800429 53.9375 212.5 C56.37679746 210.57423885 58.73840595 208.69909405 60.9375 206.5 C61.5975 206.5 62.2575 206.5 62.9375 206.5 C62.9375 203.53 62.9375 200.56 62.9375 197.5 C62.6075 197.5 62.2775 197.5 61.9375 197.5 Z M-366.0625 201.5 C-366.7225 202.82 -367.3825 204.14 -368.0625 205.5 C-366.21524948 206.19159401 -366.21524948 206.19159401 -364.0625 206.5 C-363.0725 205.84 -362.0825 205.18 -361.0625 204.5 C-361.0625 203.51 -361.0625 202.52 -361.0625 201.5 C-362.7125 201.5 -364.3625 201.5 -366.0625 201.5 Z M-17.0625 201.5 C-16.0625 203.5 -16.0625 203.5 -16.0625 203.5 Z M-16.0625 203.5 C-15.0625 205.5 -15.0625 205.5 -15.0625 205.5 Z M-15.0625 205.5 C-14.0625 207.5 -14.0625 207.5 -14.0625 207.5 Z M-14.0625 207.5 C-13.0625 209.5 -13.0625 209.5 -13.0625 209.5 Z M-13.0625 209.5 C-12.0625 211.5 -12.0625 211.5 -12.0625 211.5 Z M-12.0625 211.5 C-11.0625 213.5 -11.0625 213.5 -11.0625 213.5 Z M-11.0625 213.5 C-10.0625 215.5 -10.0625 215.5 -10.0625 215.5 Z M-10.0625 215.5 C-9.0625 217.5 -9.0625 217.5 -9.0625 217.5 Z M-9.0625 217.5 C-8.0625 219.5 -8.0625 219.5 -8.0625 219.5 Z M-8.0625 219.5 C-7.0625 221.5 -7.0625 221.5 -7.0625 221.5 Z M-7.0625 221.5 C-6.46066251 223.52045442 -5.78943904 225.52111039 -5.0625 227.5 C-4.4025 227.83 -3.7425 228.16 -3.0625 228.5 C-3.66433749 226.47954558 -4.33556096 224.47888961 -5.0625 222.5 C-5.7225 222.17 -6.3825 221.84 -7.0625 221.5 Z M-62.0625 227.5 C-61.0625 229.5 -61.0625 229.5 -61.0625 229.5 Z M-3.0625 228.5 C-1.97181332 232.27545388 -1.1541909 234.97043472 1.9375 237.5 C0.84681332 233.72454612 0.0291909 231.02956528 -3.0625 228.5 Z M-84.0625 233.5 C-83.4025 234.16 -82.7425 234.82 -82.0625 235.5 C-82.0625 234.84 -82.0625 234.18 -82.0625 233.5 C-82.7225 233.5 -83.3825 233.5 -84.0625 233.5 Z M1.9375 237.5 C2.53933749 239.52045442 3.21056096 241.52111039 3.9375 243.5 C4.5975 243.83 5.2575 244.16 5.9375 244.5 C5.33566251 242.47954558 4.66443904 240.47888961 3.9375 238.5 C3.2775 238.17 2.6175 237.84 1.9375 237.5 Z M5.9375 244.5 C7.1233237 247.87503669 8.21323689 250.14722731 10.9375 252.5 C9.7516763 249.12496331 8.66176311 246.85277269 5.9375 244.5 Z M10.9375 252.5 C12.67609611 257.67389444 15.64493223 262.05624923 18.5625 266.625 C19.10592041 267.47956787 19.64934082 268.33413574 20.20922852 269.21459961 C23.56059994 274.44766942 27.00588565 279.56903863 30.734375 284.54296875 C32.56862581 287.00489759 34.36157441 289.48655593 36.140625 291.98828125 C36.71433838 292.79257568 37.28805176 293.59687012 37.87915039 294.42553711 C39.01687435 296.02178721 40.15162884 297.62015925 41.28295898 299.22094727 C44.2398783 303.35091145 47.21834887 307.03615238 50.9375 310.5 C49.42053723 305.87936628 46.76639503 302.40887925 43.8125 298.625 C33.00985789 284.49936942 22.83636346 269.85358131 13.44140625 254.75390625 C12.69697266 253.63822266 12.69697266 253.63822266 11.9375 252.5 C11.6075 252.5 11.2775 252.5 10.9375 252.5 Z M-235.0625 280.5 C-235.3925 281.82 -235.7225 283.14 -236.0625 284.5 C-235.4025 284.5 -234.7425 284.5 -234.0625 284.5 C-233.7325 285.16 -233.4025 285.82 -233.0625 286.5 C-233.3925 284.52 -233.7225 282.54 -234.0625 280.5 C-234.3925 280.5 -234.7225 280.5 -235.0625 280.5 Z M-125.0625 297.5 C-126.85932816 301.30504787 -127.13599791 302.20600835 -126.0625 306.5 C-125.4025 303.53 -124.7425 300.56 -124.0625 297.5 C-124.3925 297.5 -124.7225 297.5 -125.0625 297.5 Z M-128.0625 308.5 C-127.0625 310.5 -127.0625 310.5 -127.0625 310.5 Z M-144.0625 309.5 C-144.0625 312.5 -144.0625 312.5 -144.0625 312.5 Z M-169.0625 311.5 C-169.0625 312.16 -169.0625 312.82 -169.0625 313.5 C-168.4025 313.5 -167.7425 313.5 -167.0625 313.5 C-167.0625 312.84 -167.0625 312.18 -167.0625 311.5 C-167.7225 311.5 -168.3825 311.5 -169.0625 311.5 Z M-168.0625 317.5 C-168.3925 318.16 -168.7225 318.82 -169.0625 319.5 C-168.4025 319.5 -167.7425 319.5 -167.0625 319.5 C-167.3925 318.84 -167.7225 318.18 -168.0625 317.5 Z M-424.0625 324.5 C-423.79197067 336.99353654 -418.93681428 346.49269859 -412.515625 357.00390625 C-411.0625 359.5 -411.0625 359.5 -410.0625 362.5 C-409.0725 362.5 -408.0825 362.5 -407.0625 362.5 C-406.7325 363.16 -406.4025 363.82 -406.0625 364.5 C-404.7425 363.84 -403.4225 363.18 -402.0625 362.5 C-402.0625 361.84 -402.0625 361.18 -402.0625 360.5 C-403.17625 360.4071875 -403.17625 360.4071875 -404.3125 360.3125 C-410.65115914 358.43971434 -414.10718866 350.02282168 -417.15625 344.50390625 C-420.35893905 338.22569374 -421.70653225 331.36904717 -423.0625 324.5 C-423.3925 324.5 -423.7225 324.5 -424.0625 324.5 Z M-169.0625 326.5 C-168.0625 328.5 -168.0625 328.5 -168.0625 328.5 Z M-175.0625 327.5 C-174.0625 329.5 -174.0625 329.5 -174.0625 329.5 Z M-87.0625 328.5 C-86.0625 330.5 -86.0625 330.5 -86.0625 330.5 Z M-169.0625 329.5 C-169.0625 330.16 -169.0625 330.82 -169.0625 331.5 C-168.4025 331.5 -167.7425 331.5 -167.0625 331.5 C-167.0625 330.84 -167.0625 330.18 -167.0625 329.5 C-167.7225 329.5 -168.3825 329.5 -169.0625 329.5 Z M-162.0625 329.5 C-161.0625 331.5 -161.0625 331.5 -161.0625 331.5 Z M-152.0625 329.5 C-151.0625 331.5 -151.0625 331.5 -151.0625 331.5 Z M-175.0625 330.5 C-174.4025 331.16 -173.7425 331.82 -173.0625 332.5 C-172.0725 331.84 -171.0825 331.18 -170.0625 330.5 C-171.7125 330.5 -173.3625 330.5 -175.0625 330.5 Z M-159.0625 331.5 C-157.0825 332.49 -157.0825 332.49 -155.0625 333.5 C-155.0625 332.84 -155.0625 332.18 -155.0625 331.5 C-156.3825 331.5 -157.7025 331.5 -159.0625 331.5 Z M-163.0625 337.5 C-162.7325 338.16 -162.4025 338.82 -162.0625 339.5 C-161.7325 338.84 -161.4025 338.18 -161.0625 337.5 C-161.7225 337.5 -162.3825 337.5 -163.0625 337.5 Z M-245.0625 345.5 C-244.7325 346.82 -244.4025 348.14 -244.0625 349.5 C-244.0625 348.18 -244.0625 346.86 -244.0625 345.5 C-244.3925 345.5 -244.7225 345.5 -245.0625 345.5 Z M-41.1875 357.8125 C-41.91195313 358.42738281 -42.63640625 359.04226563 -43.3828125 359.67578125 C-45.4011818 361.45453373 -45.4011818 361.45453373 -45.0625 364.5 C-44.485 364.21125 -43.9075 363.9225 -43.3125 363.625 C-41.0625 362.5 -41.0625 362.5 -38.9375 361.75 C-36.16771317 359.90347545 -35.87769046 357.62489677 -35.0625 354.5 C-37.96864132 354.5 -39.0193648 355.93578082 -41.1875 357.8125 Z M-413.0625 359.5 C-412.72022428 362.47065509 -412.72022428 362.47065509 -412.0625 365.5 C-411.4025 365.83 -410.7425 366.16 -410.0625 366.5 C-410.63702746 362.56924356 -410.63702746 362.56924356 -413.0625 359.5 Z M-253.0625 361.5 C-253.0625 362.16 -253.0625 362.82 -253.0625 363.5 C-252.4025 363.17 -251.7425 362.84 -251.0625 362.5 C-251.7225 362.17 -252.3825 361.84 -253.0625 361.5 Z M-250.0625 361.5 C-249.7325 362.49 -249.4025 363.48 -249.0625 364.5 C-248.7325 363.51 -248.4025 362.52 -248.0625 361.5 C-248.7225 361.5 -249.3825 361.5 -250.0625 361.5 Z M-218.0625 363.5 C-217.66496179 364.96366342 -217.24368616 366.4208935 -216.8125 367.875 C-216.46445312 369.09316406 -216.46445312 369.09316406 -216.109375 370.3359375 C-214.8410108 372.95785454 -213.73826692 373.49382318 -211.0625 374.5 C-211.66948743 370.37248551 -213.10060791 367.1678852 -215.0625 363.5 C-216.0525 363.5 -217.0425 363.5 -218.0625 363.5 Z M-47.0625 363.5 C-47.3925 364.16 -47.7225 364.82 -48.0625 365.5 C-47.4025 365.5 -46.7425 365.5 -46.0625 365.5 C-46.3925 364.84 -46.7225 364.18 -47.0625 363.5 Z M-222.0625 365.5 C-222.0625 366.16 -222.0625 366.82 -222.0625 367.5 C-220.7425 367.5 -219.4225 367.5 -218.0625 367.5 C-218.0625 366.84 -218.0625 366.18 -218.0625 365.5 C-219.3825 365.5 -220.7025 365.5 -222.0625 365.5 Z M-393.0625 397.5 C-392.46388258 399.85171131 -391.79325648 402.1859378 -391.0625 404.5 C-390.4025 404.83 -389.7425 405.16 -389.0625 405.5 C-388.86163557 401.78400809 -388.9105563 400.72791555 -391.0625 397.5 C-391.7225 397.5 -392.3825 397.5 -393.0625 397.5 Z M-225.0625 406.5 C-224.7325 407.16 -224.4025 407.82 -224.0625 408.5 C-221.7525 408.5 -219.4425 408.5 -217.0625 408.5 C-217.3925 407.84 -217.7225 407.18 -218.0625 406.5 C-220.3725 406.5 -222.6825 406.5 -225.0625 406.5 Z M-228.0625 409.5 C-229.50874241 414.65223858 -230.48645327 419.09459582 -230.0625 424.5 C-229.0725 425.985 -229.0725 425.985 -228.0625 427.5 C-226.4125 427.17 -224.7625 426.84 -223.0625 426.5 C-224.3825 425.84 -225.7025 425.18 -227.0625 424.5 C-227.0625 422.85 -227.0625 421.2 -227.0625 419.5 C-226.423125 419.685625 -225.78375 419.87125 -225.125 420.0625 C-224.1040625 420.2790625 -224.1040625 420.2790625 -223.0625 420.5 C-222.7325 420.17 -222.4025 419.84 -222.0625 419.5 C-220.7425 420.82 -219.4225 422.14 -218.0625 423.5 C-215.24000049 422.46508351 -214.22875774 421.80084735 -212.75 419.125 C-212.01888253 416.33346058 -212.26653635 415.19138789 -213.0625 412.5 C-213.97773438 412.45101563 -214.89296875 412.40203125 -215.8359375 412.3515625 C-217.02445312 412.27679687 -218.21296875 412.20203125 -219.4375 412.125 C-220.62085938 412.05539062 -221.80421875 411.98578125 -223.0234375 411.9140625 C-226.0625 411.5 -226.0625 411.5 -228.0625 409.5 Z M-163.75 411.25 C-164.90725586 411.50523437 -164.90725586 411.50523437 -166.08789062 411.765625 C-170.90273824 412.83598405 -170.90273824 412.83598405 -174.0625 416.5 C-177.6875 416.6875 -177.6875 416.6875 -181.0625 416.5 C-181.7225 418.48 -182.3825 420.46 -183.0625 422.5 C-180.60506214 422.86173964 -178.14691207 423.21468169 -175.6875 423.5625 C-174.63949219 423.7181543 -174.63949219 423.7181543 -173.5703125 423.87695312 C-169.71233167 424.55029848 -169.71233167 424.55029848 -166.0625 423.5 C-166.0625 421.52 -166.0625 419.54 -166.0625 417.5 C-164.7425 417.5 -163.4225 417.5 -162.0625 417.5 C-161.7325 418.16 -161.4025 418.82 -161.0625 419.5 C-158.19525314 418.92655063 -157.2010485 418.6385485 -155.0625 416.5 C-155.3925 418.15 -155.7225 419.8 -156.0625 421.5 C-153.58390092 419.2991151 -152.45039634 417.43627031 -151.375 414.3125 C-150.99794922 413.23935547 -150.99794922 413.23935547 -150.61328125 412.14453125 C-150.43152344 411.60183594 -150.24976563 411.05914063 -150.0625 410.5 C-154.95008334 408.97811776 -158.92855279 410.0722419 -163.75 411.25 Z M-160.0625 419.5 C-160.3925 420.49 -160.7225 421.48 -161.0625 422.5 C-160.0725 422.83 -159.0825 423.16 -158.0625 423.5 C-158.3925 422.18 -158.7225 420.86 -159.0625 419.5 C-159.3925 419.5 -159.7225 419.5 -160.0625 419.5 Z M-191.0625 425.5 C-190.7325 427.81 -190.4025 430.12 -190.0625 432.5 C-189.0725 432.17 -188.0825 431.84 -187.0625 431.5 C-186.06032936 427.91672247 -186.06032936 427.91672247 -187.0625 424.5 C-189.1370356 424.3509288 -189.1370356 424.3509288 -191.0625 425.5 Z M-153.0625 424.5 C-153.0625 427.5 -153.0625 427.5 -153.0625 427.5 Z M-228.0625 427.5 C-227.0625 429.5 -227.0625 429.5 -227.0625 429.5 Z M-168.0625 427.5 C-168.3925 428.16 -168.7225 428.82 -169.0625 429.5 C-168.4025 429.5 -167.7425 429.5 -167.0625 429.5 C-167.3925 428.84 -167.7225 428.18 -168.0625 427.5 Z M-154.0625 428.5 C-153.7325 429.16 -153.4025 429.82 -153.0625 430.5 C-151.4125 430.5 -149.7625 430.5 -148.0625 430.5 C-150.9049854 428.92726432 -150.9049854 428.92726432 -154.0625 428.5 Z M-45.0625 440.5 C-46.0525 441.985 -46.0525 441.985 -47.0625 443.5 C-45.7425 442.84 -44.4225 442.18 -43.0625 441.5 C-43.7225 441.17 -44.3825 440.84 -45.0625 440.5 Z M-49.0625 443.5 C-49.3925 444.16 -49.7225 444.82 -50.0625 445.5 C-49.0725 445.5 -48.0825 445.5 -47.0625 445.5 C-47.0625 444.84 -47.0625 444.18 -47.0625 443.5 C-47.7225 443.5 -48.3825 443.5 -49.0625 443.5 Z M-52.0625 446.5 C-51.0625 448.5 -51.0625 448.5 -51.0625 448.5 Z M-340.0625 454.5 C-339.7325 455.16 -339.4025 455.82 -339.0625 456.5 C-338.4025 456.17 -337.7425 455.84 -337.0625 455.5 C-338.0525 455.17 -339.0425 454.84 -340.0625 454.5 Z " transform="translate(705.0625,296.5)"/>
<path d="" transform="translate(0,0)"/>
<path d="M0 0 C0.33 0.99 0.66 1.98 1 3 C0.34 3.66 -0.32 4.32 -1 5 C-0.67 3.35 -0.34 1.7 0 0 Z " transform="translate(759,632)"/>
<path d="" transform="translate(0,0)"/>
<path d="" transform="translate(0,0)"/>
<path d="M0 0 C0.33 0.99 0.66 1.98 1 3 C0.01 3.495 0.01 3.495 -1 4 C-0.67 2.68 -0.34 1.36 0 0 Z " transform="translate(750,638)"/>
<path d="M0 0 C0.33 0.66 0.66 1.32 1 2 C0.34 1.67 -0.32 1.34 -1 1 C-0.67 0.67 -0.34 0.34 0 0 Z " transform="translate(748,642)"/>
<path d="" transform="translate(0,0)"/>
<path d="" transform="translate(0,0)"/>
<path d="M0 0 C2 1 2 1 2 1 Z " transform="translate(478,713)"/>
<path d="" transform="translate(0,0)"/>
<path d="" transform="translate(0,0)"/>
<path d="" transform="translate(0,0)"/>
<path d="" transform="translate(0,0)"/>
<path d="" transform="translate(0,0)"/>
<path d="" transform="translate(0,0)"/>
<path d="M0 0 C2 1 2 1 2 1 Z " transform="translate(696,732)"/>
<path d="" transform="translate(0,0)"/>
<path d="M0 0 C2 1 2 1 2 1 Z " transform="translate(673,734)"/>
<path d="" transform="translate(0,0)"/>
<path d="" transform="translate(0,0)"/>
<path d="" transform="translate(0,0)"/>
<path d="" transform="translate(0,0)"/>
<path d="" transform="translate(0,0)"/>
</svg>
