<svg version="1.1" xmlns="http://www.w3.org/2000/svg" width="256" height="256" transform="rotate(0) scale(1, 1)"><path d="M0 0 C0.75222839 0.00054382 1.50445679 0.00108765 2.27947998 0.00164795 C14.07458601 0.04083851 25.20125556 0.78422688 36.5 4.375 C37.16483398 4.57867188 37.82966797 4.78234375 38.51464844 4.9921875 C72.34794022 15.65041457 99.78142991 39.33564316 116.30029297 70.53955078 C121.94634317 81.80373813 127.52557906 95.52875662 127.67700195 108.27856445 C127.68983719 109.22758133 127.70267242 110.17659821 127.71589661 111.15437317 C127.72697701 112.68090767 127.72697701 112.68090767 127.73828125 114.23828125 C127.746353 115.30306198 127.75442474 116.36784271 127.76274109 117.46488953 C127.77656033 119.72177516 127.78729212 121.9786815 127.79516602 124.2355957 C127.80662343 126.51723462 127.82697463 128.79884808 127.85668945 131.08032227 C128.25674778 161.83117456 119.21881254 189.15442608 98.5 212.375 C97.36304688 213.72658203 97.36304688 213.72658203 96.203125 215.10546875 C76.22716417 238.24755409 46.67204708 252.62882644 16.5 256.375 C-24.04267038 258.47648252 -58.29709508 249.05861464 -89.1484375 221.53125 C-106.88393728 205.16313598 -119.24717952 182.57094693 -125.5 159.375 C-125.5 158.055 -125.5 156.735 -125.5 155.375 C-126.49 155.375 -127.48 155.375 -128.5 155.375 C-128.5 137.555 -128.5 119.735 -128.5 101.375 C-127.84 101.705 -127.18 102.035 -126.5 102.375 C-126.17128906 101.15167969 -125.84257813 99.92835937 -125.50390625 98.66796875 C-119.08332235 75.59543882 -109.13752824 56.70924216 -92.5 39.375 C-91.65824219 38.47007813 -90.81648438 37.56515625 -89.94921875 36.6328125 C-73.28012679 19.2159031 -50.87712109 7.7660308 -27.5 2.375 C-26.28715332 2.08786133 -26.28715332 2.08786133 -25.04980469 1.79492188 C-16.7425362 0.04438386 -8.44898637 -0.02295227 0 0 Z M-127.5 149.375 C-126.5 152.375 -126.5 152.375 -126.5 152.375 Z " fill="currentColor" transform="translate(128.5,-0.375)" data-originalfillcolor="currentColor"></path><path d="M0 0 C0.75222839 0.00054382 1.50445679 0.00108765 2.27947998 0.00164795 C14.07458601 0.04083851 25.20125556 0.78422688 36.5 4.375 C37.16483398 4.57867188 37.82966797 4.78234375 38.51464844 4.9921875 C72.34794022 15.65041457 99.78142991 39.33564316 116.30029297 70.53955078 C121.94634317 81.80373813 127.52557906 95.52875662 127.67700195 108.27856445 C127.68983719 109.22758133 127.70267242 110.17659821 127.71589661 111.15437317 C127.72697701 112.68090767 127.72697701 112.68090767 127.73828125 114.23828125 C127.746353 115.30306198 127.75442474 116.36784271 127.76274109 117.46488953 C127.77656033 119.72177516 127.78729212 121.9786815 127.79516602 124.2355957 C127.80662343 126.51723462 127.82697463 128.79884808 127.85668945 131.08032227 C128.25674778 161.83117456 119.21881254 189.15442608 98.5 212.375 C97.36304688 213.72658203 97.36304688 213.72658203 96.203125 215.10546875 C76.22716417 238.24755409 46.67204708 252.62882644 16.5 256.375 C-24.04267038 258.47648252 -58.29709508 249.05861464 -89.1484375 221.53125 C-106.88393728 205.16313598 -119.24717952 182.57094693 -125.5 159.375 C-125.5 158.055 -125.5 156.735 -125.5 155.375 C-126.49 155.375 -127.48 155.375 -128.5 155.375 C-128.5 137.555 -128.5 119.735 -128.5 101.375 C-127.84 101.705 -127.18 102.035 -126.5 102.375 C-126.17128906 101.15167969 -125.84257813 99.92835937 -125.50390625 98.66796875 C-119.08332235 75.59543882 -109.13752824 56.70924216 -92.5 39.375 C-91.65824219 38.47007813 -90.81648438 37.56515625 -89.94921875 36.6328125 C-73.28012679 19.2159031 -50.87712109 7.7660308 -27.5 2.375 C-26.28715332 2.08786133 -26.28715332 2.08786133 -25.04980469 1.79492188 C-16.7425362 0.04438386 -8.44898637 -0.02295227 0 0 Z M-41.25 12.1875 C-41.95406982 12.44611816 -42.65813965 12.70473633 -43.38354492 12.97119141 C-74.63500775 24.72296572 -99.40423588 48.71262861 -113.19921875 79.0078125 C-118.12502005 90.69573397 -122.43169921 103.56413588 -121.5 116.375 C-118.86 114.395 -116.22 112.415 -113.5 110.375 C-117.43371381 112.62283646 -120.57919031 115.22730037 -122.5 119.375 C-125.12206186 132.77491015 -122.69142623 147.53211582 -118.5 160.375 C-118.24798828 161.15214355 -117.99597656 161.92928711 -117.73632812 162.72998047 C-109.67011553 187.03017129 -96.87859022 204.88691173 -78.5 222.375 C-78.16781808 219.37240483 -78.16781808 219.37240483 -80 217.6875 C-80.495 217.254375 -80.99 216.82125 -81.5 216.375 C-80.51 215.715 -79.52 215.055 -78.5 214.375 C-78.40589844 214.96796875 -78.31179687 215.5609375 -78.21484375 216.171875 C-77.34054781 218.86642641 -76.23279682 219.83822756 -74.0625 221.625 C-73.44503906 222.14578125 -72.82757813 222.6665625 -72.19140625 223.203125 C-70.56895498 224.56483536 -70.56895498 224.56483536 -68.5 224.375 C-68.83 225.365 -69.16 226.355 -69.5 227.375 C-54.05526593 243.16514346 -29.32969897 250.34869096 -7.72265625 250.80859375 C-5.43678649 250.83093129 -3.15239602 250.83390774 -0.86645508 250.82104492 C1.433037 250.81251655 3.7300464 250.84146982 6.02929688 250.87304688 C23.60976733 250.95562229 43.75314919 246.99526615 57.5 235.375 C61.88446038 231.01981816 65.82600919 226.38645074 69.4375 221.375 C72.58523815 217.01930632 76.40878562 213.4389857 80.2421875 209.69140625 C82.74926967 207.11926139 84.60537985 204.41992524 86.5 201.375 C87.46602079 200.25931401 88.44639376 199.1559623 89.4375 198.0625 C92.83402747 194.15649341 95.15237253 189.96964234 97.5 185.375 C97.79616211 184.80700684 98.09232422 184.23901367 98.39746094 183.65380859 C99.37741256 181.77334756 100.34664248 179.88773511 101.3125 178 C101.62695068 177.392771 101.94140137 176.78554199 102.26538086 176.15991211 C103.67969849 173.35130744 104.5 171.56661605 104.5 168.375 C105.16 168.375 105.82 168.375 106.5 168.375 C110.59270353 158.65729898 110.59270353 158.65729898 112.5 148.375 C113.16 148.375 113.82 148.375 114.5 148.375 C114.83 149.035 115.16 149.695 115.5 150.375 C114.84 150.375 114.18 150.375 113.5 150.375 C113.40203125 151.26960937 113.3040625 152.16421875 113.203125 153.0859375 C112.35816325 159.91847306 111.18916359 165.76090838 108.38671875 172.04296875 C106.96402297 175.78459599 106.75665196 179.39689462 106.5 183.375 C105.51 183.705 104.52 184.035 103.5 184.375 C102.06917631 186.9222775 100.79109861 189.42042794 99.5625 192.0625 C97.178775 197.11011806 94.71765904 201.78510401 91.5 206.375 C89.71037181 208.99357695 89.71037181 208.99357695 88.5 211.375 C88.83 212.035 89.16 212.695 89.5 213.375 C110.67178615 194.28001031 122.54958614 164.56603178 124.33984375 136.5078125 C124.39269531 135.47398437 124.44554687 134.44015625 124.5 133.375 C124.54253906 132.58867187 124.58507812 131.80234375 124.62890625 130.9921875 C125.4411649 99.90975633 114.37598356 68.76085117 93.125 46 C72.76894674 24.82359015 44.12920855 7.58425262 13.95166016 6.21386719 C10.43431675 6.17611709 6.91742784 6.14385288 3.39990234 6.13476562 C1.16594507 6.12517577 -1.06704387 6.09416317 -3.30078125 6.0625 C-16.33973808 5.96536262 -28.97478965 7.5499541 -41.25 12.1875 Z M-127.5 149.375 C-126.5 152.375 -126.5 152.375 -126.5 152.375 Z " fill="currentColor" transform="translate(128.5,-0.375)" data-originalfillcolor="currentColor"></path><path d="M0 0 C-0.54114468 5.3018479 -1.86716995 9.75409269 -4.0625 14.625 C-4.37195557 15.31867676 -4.68141113 16.01235352 -5.00024414 16.72705078 C-10.86153594 29.52838175 -18.59983304 42.44987478 -30 51 C-29.10381876 47.7886839 -28.3215415 45.38847181 -26.1796875 42.80078125 C-23.51076699 39.37136189 -21.74560177 35.77979229 -19.875 31.875 C-19.1866811 30.45486249 -18.49664022 29.03555801 -17.8046875 27.6171875 C-17.50546387 26.99440918 -17.20624023 26.37163086 -16.89794922 25.72998047 C-16 24 -16 24 -14 21 C-13.34 21 -12.68 21 -12 21 C-11.9071875 19.14375 -11.9071875 19.14375 -11.8125 17.25 C-11.13516815 11.17336569 -9.15769504 5.24296534 -6 0 C-3.3850588 -1.15997392 -2.57452433 -1.28726217 0 0 Z " fill="currentColor" transform="translate(247,162)" data-originalfillcolor="currentColor"></path><path d="M0 0 C0.66 1.32 1.32 2.64 2 4 C2.66 4 3.32 4 4 4 C0.63712408 11.26974647 -4.65507592 17.20261838 -11 22 C-10.10562307 18.79514933 -9.32644668 16.39398737 -7.1875 13.8125 C-3.93058259 9.62503475 -2.07554397 4.85711313 0 0 Z " fill="currentColor" transform="translate(228,191)" data-originalfillcolor="currentColor"></path><path d="M0 0 C0.66 0.33 1.32 0.66 2 1 C0.125 11.125 0.125 11.125 -3 15 C-3.99 15 -4.98 15 -6 15 C-6.94721072 12.39517051 -7.30222393 10.69325299 -6.17578125 8.109375 C-5.17063275 6.37417127 -4.0893855 4.68359577 -3 3 C-2.34 3 -1.68 3 -1 3 C-0.67 2.01 -0.34 1.02 0 0 Z " fill="currentColor" transform="translate(236,180)" data-originalfillcolor="currentColor"></path><path d="M0 0 C2.9375 0.6875 2.9375 0.6875 4.9375 1.6875 C4.1875 3.625 4.1875 3.625 2.9375 5.6875 C0.8125 6.4375 0.8125 6.4375 -1.0625 6.6875 C-1.0625 5.3675 -1.0625 4.0475 -1.0625 2.6875 C-2.7125 3.0175 -4.3625 3.3475 -6.0625 3.6875 C-6.0625 3.0275 -6.0625 2.3675 -6.0625 1.6875 C-3.0625 -0.3125 -3.0625 -0.3125 0 0 Z " fill="currentColor" transform="translate(140.0625,175.3125)" data-originalfillcolor="currentColor"></path><path d="M0 0 C3.16115776 1.36983503 3.9927092 1.9890638 6 5 C4.68 7.64 3.36 10.28 2 13 C1.67 13 1.34 13 1 13 C1.020625 12.030625 1.04125 11.06125 1.0625 10.0625 C1.35618499 7.12534105 1.35618499 7.12534105 0 6 C-0.04080783 4.00041636 -0.04254356 1.99954746 0 0 Z " fill="currentColor" transform="translate(236,174)" data-originalfillcolor="currentColor"></path><path d="M0 0 C0.99 0.33 1.98 0.66 3 1 C1.95833333 2.7578125 0.91666667 4.515625 -0.125 6.2734375 C-1.15068348 7.97472667 -1.15068348 7.97472667 -1 10 C-3.31 9.34 -5.62 8.68 -8 8 C-7.01 6.02 -6.02 4.04 -5 2 C-3.68 2.33 -2.36 2.66 -1 3 C-0.67 2.01 -0.34 1.02 0 0 Z " fill="currentColor" transform="translate(148,168)" data-originalfillcolor="currentColor"></path><path d="M0 0 C-0.66 1.32 -1.32 2.64 -2 4 C-3.65 3.67 -5.3 3.34 -7 3 C-7 3.99 -7 4.98 -7 6 C-8.65 6 -10.3 6 -12 6 C-12.33 5.01 -12.66 4.02 -13 3 C-11.68 3 -10.36 3 -9 3 C-9 2.34 -9 1.68 -9 1 C-5.846632 0.29925156 -3.27275026 0 0 0 Z " fill="currentColor" transform="translate(147,211)" data-originalfillcolor="currentColor"></path><path d="M0 0 C0.66 1.32 1.32 2.64 2 4 C1.34 4 0.68 4 0 4 C-0.33 7.96 -0.66 11.92 -1 16 C-1.99 16 -2.98 16 -4 16 C-4.33 15.34 -4.66 14.68 -5 14 C-4.33333333 12.33333333 -3.66666667 10.66666667 -3 9 C-2.835 7.783125 -2.67 6.56625 -2.5 5.3125 C-2 2 -2 2 0 0 Z " fill="currentColor" transform="translate(242,146)" data-originalfillcolor="currentColor"></path><path d="M0 0 C2.04296875 0.4609375 2.04296875 0.4609375 4.1875 1.375 C4.90292969 1.67148438 5.61835938 1.96796875 6.35546875 2.2734375 C7.16951172 2.63308594 7.16951172 2.63308594 8 3 C8 3.66 8 4.32 8 5 C7.34 5 6.68 5 6 5 C6 4.34 6 3.68 6 3 C5.071875 3.495 4.14375 3.99 3.1875 4.5 C0 6 0 6 -3 6 C-3 4.68 -3 3.36 -3 2 C-2.01 1.34 -1.02 0.68 0 0 Z " fill="currentColor" transform="translate(133,215)" data-originalfillcolor="currentColor"></path><path d="M0 0 C2 2 2 2 2 6 C2.66 6 3.32 6 4 6 C4 6.66 4 7.32 4 8 C2.35 7.67 0.7 7.34 -1 7 C-1 6.01 -1 5.02 -1 4 C-1.66 4 -2.32 4 -3 4 C-3 3.34 -3 2.68 -3 2 C-3.66 2 -4.32 2 -5 2 C-5.33 2.66 -5.66 3.32 -6 4 C-6 3.01 -6 2.02 -6 1 C-4.7934375 1.0309375 -4.7934375 1.0309375 -3.5625 1.0625 C-1.06645115 1.29633621 -1.06645115 1.29633621 0 0 Z " fill="currentColor" transform="translate(146,213)" data-originalfillcolor="currentColor"></path><path d="M0 0 C0.33 0 0.66 0 1 0 C0.50769231 6.52307692 0.50769231 6.52307692 -2.0625 8.9375 C-2.701875 9.288125 -3.34125 9.63875 -4 10 C-4.66 9.67 -5.32 9.34 -6 9 C-5.1875 6.0625 -5.1875 6.0625 -4 3 C-3.01 2.67 -2.02 2.34 -1 2 C-0.67 1.34 -0.34 0.68 0 0 Z " fill="currentColor" transform="translate(235,176)" data-originalfillcolor="currentColor"></path><path d="M0 0 C0.66 0 1.32 0 2 0 C3.02611949 1.65071396 4.02308143 3.31970006 5 5 C6.58245275 6.75149165 6.58245275 6.75149165 8 8 C7.67 8.99 7.34 9.98 7 11 C4.03 8.03 1.06 5.06 -2 2 C-1.34 1.34 -0.68 0.68 0 0 Z " fill="currentColor" transform="translate(48,214)" data-originalfillcolor="currentColor"></path><path d="M0 0 C0.99 0.99 1.98 1.98 3 3 C0.36 5.64 -2.28 8.28 -5 11 C-5.33 10.34 -5.66 9.68 -6 9 C-4 6 -2 3 0 0 Z " fill="currentColor" transform="translate(223,202)" data-originalfillcolor="currentColor"></path><path d="M0 0 C-4.625 4.875 -4.625 4.875 -8 6 C-8.33 4.68 -8.66 3.36 -9 2 C-8.34 2 -7.68 2 -7 2 C-7 1.34 -7 0.68 -7 0 C-2.25 -1.125 -2.25 -1.125 0 0 Z " fill="currentColor" transform="translate(198,187)" data-originalfillcolor="currentColor"></path><path d="M0 0 C0.66 0.33 1.32 0.66 2 1 C-0.37455393 4.56183089 -2.21656518 5.10828259 -6 7 C-8.09562733 8.57883236 -10.0286255 10.26331294 -12 12 C-12.66 11.67 -13.32 11.34 -14 11 C-9.52692892 6.95834187 -5.11723176 3.19826985 0 0 Z " fill="currentColor" transform="translate(36,92)" data-originalfillcolor="currentColor"></path><path d="M0 0 C0 3.10551666 -0.5393715 4.35261084 -2 7 C-2.66 7 -3.32 7 -4 7 C-4 7.66 -4 8.32 -4 9 C-4.66 9 -5.32 9 -6 9 C-6.33 7.35 -6.66 5.7 -7 4 C-6.030625 3.525625 -5.06125 3.05125 -4.0625 2.5625 C-1.19522563 1.29806053 -1.19522563 1.29806053 0 0 Z " fill="currentColor" transform="translate(82,82)" data-originalfillcolor="currentColor"></path><path d="M0 0 C2.31 0.33 4.62 0.66 7 1 C6.67 2.32 6.34 3.64 6 5 C5.34 5 4.68 5 4 5 C3.67 5.99 3.34 6.98 3 8 C1.92474806 5.34771188 0.90543849 2.71631546 0 0 Z " fill="currentColor" transform="translate(229,163)" data-originalfillcolor="currentColor"></path><path d="M0 0 C2.92509086 3.90012114 3.47535095 5.38308839 4 10 C2.68 10 1.36 10 0 10 C0 6.7 0 3.4 0 0 Z " fill="currentColor" transform="translate(110,152)" data-originalfillcolor="currentColor"></path><path d="M0 0 C2.31 0 4.62 0 7 0 C6.67 1.32 6.34 2.64 6 4 C3.03 3.505 3.03 3.505 0 3 C0 2.01 0 1.02 0 0 Z " fill="currentColor" transform="translate(114,212)" data-originalfillcolor="currentColor"></path><path d="M0 0 C0.99 0.33 1.98 0.66 3 1 C1.02 3.97 1.02 3.97 -1 7 C-1.33 6.34 -1.66 5.68 -2 5 C-2.66 4.67 -3.32 4.34 -4 4 C-2.68 2.68 -1.36 1.36 0 0 Z " fill="currentColor" transform="translate(191,224)" data-originalfillcolor="currentColor"></path><path d="M0 0 C6.875 3.75 6.875 3.75 8 6 C5.75 6.3125 5.75 6.3125 3 6 C0.6875 3.5 0.6875 3.5 -1 1 C-0.67 0.67 -0.34 0.34 0 0 Z " fill="currentColor" transform="translate(60,225)" data-originalfillcolor="currentColor"></path><path d="M0 0 C0.66 0 1.32 0 2 0 C2.33 1.98 2.66 3.96 3 6 C2.34 6 1.68 6 1 6 C0.67 6.99 0.34 7.98 0 9 C-0.99 8.34 -1.98 7.68 -3 7 C-2.34 6.67 -1.68 6.34 -1 6 C-0.34227572 2.97065509 -0.34227572 2.97065509 0 0 Z " fill="currentColor" transform="translate(106,183)" data-originalfillcolor="currentColor"></path><path d="M0 0 C0.99 1.485 0.99 1.485 2 3 C2.66 3 3.32 3 4 3 C3.6875 4.875 3.6875 4.875 3 7 C2.01 7.66 1.02 8.32 0 9 C0 6.03 0 3.06 0 0 Z " fill="currentColor" transform="translate(7,107)" data-originalfillcolor="currentColor"></path><path d="M0 0 C0.33 0.99 0.66 1.98 1 3 C3.97 3.495 3.97 3.495 7 4 C4.35261084 5.4606285 3.10551666 6 0 6 C0 4.02 0 2.04 0 0 Z " fill="currentColor" transform="translate(113,212)" data-originalfillcolor="currentColor"></path><path d="M0 0 C1.98 1.65 3.96 3.3 6 5 C5.67 5.66 5.34 6.32 5 7 C3.68 7 2.36 7 1 7 C0.67 4.69 0.34 2.38 0 0 Z " fill="currentColor" transform="translate(34,185)" data-originalfillcolor="currentColor"></path><path d="M0 0 C0.66 1.32 1.32 2.64 2 4 C1.34 4 0.68 4 0 4 C0 5.65 0 7.3 0 9 C-2 6 -2 6 -1.6875 3.375 C-1 1 -1 1 0 0 Z " fill="currentColor" transform="translate(242,146)" data-originalfillcolor="currentColor"></path></svg>