<svg fill="currentColor" xmlns="http://www.w3.org/2000/svg" viewBox="219.136 225.28 585.728 577.536" style="max-height:500px;max-width:500px" width="585.728" height="577.536"><path d="m705.063 296.5 2.484 2.27a279 279 0 0 0 4.844 4.304c11.35 9.904 21.21 21.15 30.27 33.155a695 695 0 0 0 4.046 5.283C757.919 356.239 767.15 372.259 775 389l.982 2.05C791.997 424.593 801.25 462.809 802 500l.062 2.505c.707 32.594-3.25 65.349-13.062 96.495l-.788 2.519c-11.46 35.981-30.854 70.343-56.798 97.891a207 207 0 0 0-5.613 6.305c-4.195 4.816-8.7 9.295-13.239 13.785l-2.505 2.492A3748 3748 0 0 1 704 728l-2-1 2.379-2.238c8.508-8.154 15.432-16.393 19.406-27.692 1.469-2.503 3.44-3.835 5.688-5.615 2.733-2.604 4.1-5.874 5.652-9.268l1.945-4.082.962-2.055c1.596-3.38 3.283-6.714 4.968-10.05 4.841-9.593 9.573-19.206 14-29l2 1c2.201-3.804 2.201-3.804 3-8l-2 2c.665-4.389 2.188-7.981 4-12l7 7-1.348-1.61-1.715-2.14-1.722-2.11C765 619 765 619 765.168 617.2L766 615l1.086-3.496q.642-1.971 1.289-3.942l.633-1.986c.97-2.95 1.94-5.496 3.656-8.096 1.829-3.395 1.522-5.9 1.336-9.73-.275-8.847 1.205-17.116 3-25.75l1 2 2-1-1-10h-2l-.875 1.75a64 64 0 0 1-2.176 4.023c-1.191 2.795-1.19 5.069-1.261 8.102-.598 9.51-4.288 17.724-7.875 26.438-1.842 4.495-2.89 8.92-3.813 13.687h-2l-1-2-1.93 4.824-1.66 4.14c-1.166 2.902-2.323 5.802-3.418 8.731-4.442 11.807-10.782 22.474-18.135 32.675-2.239 3.131-4.181 6.168-5.818 9.657-2.05 4.264-4.78 7.584-7.914 11.098l-1.527 1.762c-2.49 2.846-5.027 5.527-7.793 8.105-3.01 2.944-4.199 6.12-5.805 10.008-1.641 2.079-3.23 3.926-5.062 5.813l-1.542 1.635c-3.248 3.416-6.584 6.738-9.943 10.044l-2.386 2.356a594 594 0 0 1-4.659 4.532c-4.533 4.439-8.27 8.999-11.811 14.261-2.212 3.267-4.634 6.342-7.097 9.422-3.1 3.888-6.129 7.796-9.062 11.812C631.607 782.228 587.594 792.248 556 797l-3.58.542c-12.452 1.74-24.865 1.815-37.42 1.77l-3.292-.006c-15.75-.05-31.196-.315-46.708-3.306l-3.248-.618C430.19 789.197 399.919 779.152 372 763l-2.025-1.17C359.12 755.42 350.58 747.178 342 738c3.94 0 5.83 1.478 9.188 3.5l3.292 1.969L357 745l-1.652-1.162a2124 2124 0 0 1-7.348-5.213l-2.602-1.828-2.46-1.758-2.286-1.619L339 732v-2l-1.742-.734c-5.3-2.972-9.433-8.306-11.758-13.828L325 713h-3v2h-2l-1 2c1.313 3.718 3.809 5.952 6.625 8.625 1.496 1.42 2.964 2.87 4.375 4.375v2l1.75.688c2.816 1.642 4.33 3.707 6.25 6.312-4.068-1.69-7.157-4.514-10.437-7.375l-1.852-1.602C314.176 719.987 302.869 709.705 293 698l-1.351-1.58C272.197 673.58 256.464 647.712 245 620l-1.046-2.513c-13.756-33.46-21.144-69.2-21.14-105.383a752 752 0 0 0-.039-6.192q-.005-2.001-.005-4.002l-.013-3.59c.417-5.699 1.839-9.423 5.884-13.457l2.224-2.233 2.385-2.317 2.445-2.412c5.798-5.638 11.829-10.753 18.29-15.604a100 100 0 0 0 7.327-6.172C285.503 434.248 314.48 417.268 342 400c-9.77 5-18.854 10.957-28 17l-1.971 1.299A1498 1498 0 0 0 299 427l-1.997 1.344c-12.302 8.298-24.057 17.037-35.333 26.687a313 313 0 0 1-9.858 8.094c-8.424 6.699-16.095 14.053-23.562 21.785C226 487 226 487 224 487c2.16-32.334 11.02-63.42 24-93l1.02-2.335c11.695-26.518 28.32-51.836 48.3-72.837a184 184 0 0 0 6.368-7.078c6.243-7.176 13.012-13.503 20.44-19.437 2.929-2.359 5.77-4.8 8.622-7.25 11.161-9.304 23.682-16.824 36.25-24.063l3.434-1.988c85.87-48.38 201.393-45.62 332.629 37.488M619 354l1 2Zm-189 34v3Zm187 2 1 2Zm-197 3-1 2 3-1zm-73 2-1 2 3-1zm-3 2-1 2 3-1zm63 1-1 2h3v-2zm-21 1 1 2Zm3 17c-.81 2.915-1.218 4.461-.062 7.313L390 425l3-1c1.716-3.503 1.716-3.503 3-7zm38 2 1 3Zm1 3 1 2Zm-34 19v2h2v-2zm236 22 1 2Zm137 32c-3.555 4.664-6.53 9.268-8 15 2.44-1.926 4.8-3.8 7-6h2v-9zm-428 4-2 4c1.847.692 1.847.692 4 1l3-2v-3zm349 0 1 2Zm1 2 1 2Zm1 2 1 2Zm1 2 1 2Zm1 2 1 2Zm1 2 1 2Zm1 2 1 2Zm1 2 1 2Zm1 2 1 2Zm1 2 1 2Zm1 2a101 101 0 0 0 2 6l2 1a101 101 0 0 0-2-6zm-55 6 1 2Zm59 1c1.09 3.775 1.908 6.47 5 9-1.09-3.775-1.908-6.47-5-9m-81 5 2 2v-2zm86 4a101 101 0 0 0 2 6l2 1a101 101 0 0 0-2-6zm4 7c1.186 3.375 2.276 5.647 5 8-1.186-3.375-2.276-5.647-5-8m5 8c1.739 5.174 4.707 9.556 7.625 14.125l1.647 2.59c3.351 5.233 6.796 10.354 10.525 15.328a415 415 0 0 1 5.406 7.445l1.739 2.438q1.706 2.394 3.403 4.795c2.957 4.13 5.936 7.815 9.655 11.279-1.517-4.62-4.171-8.091-7.125-11.875-10.803-14.126-20.976-28.771-30.371-43.871L717 549zm-246 28-1 4h2l1 2-1-6zm110 17c-1.797 3.805-2.073 4.706-1 9l2-9zm-3 11 1 2Zm-16 1v3Zm-25 2v2h2v-2zm1 6-1 2h2zm-256 7c.27 12.494 5.126 21.993 11.547 32.504C294 656 294 656 295 659h3l1 2 4-2v-2l-2.25-.187c-6.339-1.873-9.795-10.29-12.844-15.81-3.202-6.277-4.55-13.134-5.906-20.003zm255 2 1 2Zm-6 1 1 2Zm88 1 1 2Zm-82 1v2h2v-2zm7 0 1 2Zm10 0 1 2Zm-23 1 2 2 3-2zm16 1 4 2v-2zm-4 6 1 2 1-2zm-82 8 1 4v-4zm203.875 12.313-2.195 1.863c-2.019 1.779-2.019 1.779-1.68 4.824l1.75-.875C664 659 664 659 666.125 658.25c2.77-1.847 3.06-4.125 3.875-7.25-2.906 0-3.957 1.436-6.125 3.313M292 656c.342 2.97.342 2.97 1 6l2 1c-.575-3.93-.575-3.93-3-7m160 2v2l2-1zm3 0 1 3 1-3zm32 2c.398 1.464.819 2.92 1.25 4.375l.703 2.46c1.268 2.623 2.371 3.159 5.047 4.165-.607-4.128-2.038-7.332-4-11zm171 0-1 2h2zm-175 2v2h4v-2zm-171 32c.599 2.352 1.27 4.686 2 7l2 1c.2-3.716.152-4.772-2-8zm168 9 1 2h7l-1-2zm-3 3c-1.446 5.152-2.424 9.595-2 15l2 3 5-1-4-2v-5l1.938.563L482 717l1-1 4 4c2.822-1.035 3.834-1.7 5.313-4.375.73-2.792.483-3.934-.313-6.625l-2.773-.148-3.602-.227c-1.183-.07-2.367-.14-3.586-.21C479 708 479 708 477 706m64.313 1.75-2.338.516c-4.815 1.07-4.815 1.07-7.975 4.734-3.625.188-3.625.188-7 0l-2 6q3.686.542 7.375 1.063l2.117.314c3.858.673 3.858.673 7.508-.377v-6h4l1 2c2.867-.573 3.861-.861 6-3l-1 5c2.479-2.2 3.612-4.064 4.688-7.187l.761-2.168L555 707c-4.888-1.522-8.866-.428-13.687.75M545 716l-1 3 3 1-1-4zm-31 6 1 7 3-1c1.002-3.583 1.002-3.583 0-7-2.075-.15-2.075-.15-4 1m38-1v3Zm-75 3 1 2Zm60 0-1 2h2zm14 1 1 2h5c-2.842-1.573-2.842-1.573-6-2m109 12-2 3 4-2zm-4 3-1 2h3v-2zm-3 3 1 2Zm-288 8 1 2 2-1z"/><path d="m759 632 1 3-2 2zm-9 6 1 3-2 1zm-2 4 1 2-2-1zm-270 71 2 1Zm218 19 2 1Zm-23 2 2 1Z"/></svg>